<svg id="visual" viewBox="0 0 900 600" width="900" height="600" xmlns="http://www.w3.org/2000/svg" xmlns:xlink="http://www.w3.org/1999/xlink" version="1.1"><rect x="0" y="0" width="900" height="600" fill="#4e4a54"></rect><path d="M0 124L21.5 127.7C43 131.3 86 138.7 128.8 138.3C171.7 138 214.3 130 257.2 134.2C300 138.3 343 154.7 385.8 177.3C428.7 200 471.3 229 514.2 216.2C557 203.3 600 148.7 642.8 141C685.7 133.3 728.3 172.7 771.2 177.8C814 183 857 154 878.5 139.5L900 125L900 601L878.5 601C857 601 814 601 771.2 601C728.3 601 685.7 601 642.8 601C600 601 557 601 514.2 601C471.3 601 428.7 601 385.8 601C343 601 300 601 257.2 601C214.3 601 171.7 601 128.8 601C86 601 43 601 21.5 601L0 601Z" fill="#ffa034"></path><path d="M0 227L21.5 215.2C43 203.3 86 179.7 128.8 190.3C171.7 201 214.3 246 257.2 245.5C300 245 343 199 385.8 196.5C428.7 194 471.3 235 514.2 253.5C557 272 600 268 642.8 250.5C685.7 233 728.3 202 771.2 185.5C814 169 857 167 878.5 166L900 165L900 601L878.5 601C857 601 814 601 771.2 601C728.3 601 685.7 601 642.8 601C600 601 557 601 514.2 601C471.3 601 428.7 601 385.8 601C343 601 300 601 257.2 601C214.3 601 171.7 601 128.8 601C86 601 43 601 21.5 601L0 601Z" fill="#ff8d43"></path><path d="M0 289L21.5 272.8C43 256.7 86 224.3 128.8 211.3C171.7 198.3 214.3 204.7 257.2 210.5C300 216.3 343 221.7 385.8 235.2C428.7 248.7 471.3 270.3 514.2 264.2C557 258 600 224 642.8 210.2C685.7 196.3 728.3 202.7 771.2 215.3C814 228 857 247 878.5 256.5L900 266L900 601L878.5 601C857 601 814 601 771.2 601C728.3 601 685.7 601 642.8 601C600 601 557 601 514.2 601C471.3 601 428.7 601 385.8 601C343 601 300 601 257.2 601C214.3 601 171.7 601 128.8 601C86 601 43 601 21.5 601L0 601Z" fill="#ff7a55"></path><path d="M0 221L21.5 220.8C43 220.7 86 220.3 128.8 227.5C171.7 234.7 214.3 249.3 257.2 260.8C300 272.3 343 280.7 385.8 288.8C428.7 297 471.3 305 514.2 308.2C557 311.3 600 309.7 642.8 309.2C685.7 308.7 728.3 309.3 771.2 297.7C814 286 857 262 878.5 250L900 238L900 601L878.5 601C857 601 814 601 771.2 601C728.3 601 685.7 601 642.8 601C600 601 557 601 514.2 601C471.3 601 428.7 601 385.8 601C343 601 300 601 257.2 601C214.3 601 171.7 601 128.8 601C86 601 43 601 21.5 601L0 601Z" fill="#ff6868"></path><path d="M0 297L21.5 301.8C43 306.7 86 316.3 128.8 329.5C171.7 342.7 214.3 359.3 257.2 364C300 368.7 343 361.3 385.8 345.7C428.7 330 471.3 306 514.2 308.3C557 310.7 600 339.3 642.8 355.8C685.7 372.3 728.3 376.7 771.2 363.2C814 349.7 857 318.3 878.5 302.7L900 287L900 601L878.5 601C857 601 814 601 771.2 601C728.3 601 685.7 601 642.8 601C600 601 557 601 514.2 601C471.3 601 428.7 601 385.8 601C343 601 300 601 257.2 601C214.3 601 171.7 601 128.8 601C86 601 43 601 21.5 601L0 601Z" fill="#ff597d"></path><path d="M0 306L21.5 320.8C43 335.7 86 365.3 128.8 379.5C171.7 393.7 214.3 392.3 257.2 392C300 391.7 343 392.3 385.8 381.3C428.7 370.3 471.3 347.7 514.2 338.7C557 329.7 600 334.3 642.8 343.7C685.7 353 728.3 367 771.2 378.3C814 389.7 857 398.3 878.5 402.7L900 407L900 601L878.5 601C857 601 814 601 771.2 601C728.3 601 685.7 601 642.8 601C600 601 557 601 514.2 601C471.3 601 428.7 601 385.8 601C343 601 300 601 257.2 601C214.3 601 171.7 601 128.8 601C86 601 43 601 21.5 601L0 601Z" fill="#ff5092"></path><path d="M0 410L21.5 405.7C43 401.3 86 392.7 128.8 399C171.7 405.3 214.3 426.7 257.2 431.3C300 436 343 424 385.8 419.5C428.7 415 471.3 418 514.2 422.8C557 427.7 600 434.3 642.8 437.8C685.7 441.3 728.3 441.7 771.2 426.8C814 412 857 382 878.5 367L900 352L900 601L878.5 601C857 601 814 601 771.2 601C728.3 601 685.7 601 642.8 601C600 601 557 601 514.2 601C471.3 601 428.7 601 385.8 601C343 601 300 601 257.2 601C214.3 601 171.7 601 128.8 601C86 601 43 601 21.5 601L0 601Z" fill="#f54da8"></path><path d="M0 466L21.5 462.2C43 458.3 86 450.7 128.8 451.5C171.7 452.3 214.3 461.7 257.2 465.7C300 469.7 343 468.3 385.8 463C428.7 457.7 471.3 448.3 514.2 445.5C557 442.7 600 446.3 642.8 440.8C685.7 435.3 728.3 420.7 771.2 425C814 429.3 857 452.7 878.5 464.3L900 476L900 601L878.5 601C857 601 814 601 771.2 601C728.3 601 685.7 601 642.8 601C600 601 557 601 514.2 601C471.3 601 428.7 601 385.8 601C343 601 300 601 257.2 601C214.3 601 171.7 601 128.8 601C86 601 43 601 21.5 601L0 601Z" fill="#e44fbd"></path><path d="M0 492L21.5 483C43 474 86 456 128.8 453C171.7 450 214.3 462 257.2 471C300 480 343 486 385.8 480C428.7 474 471.3 456 514.2 446.8C557 437.7 600 437.3 642.8 437.2C685.7 437 728.3 437 771.2 441.7C814 446.3 857 455.7 878.5 460.3L900 465L900 601L878.5 601C857 601 814 601 771.2 601C728.3 601 685.7 601 642.8 601C600 601 557 601 514.2 601C471.3 601 428.7 601 385.8 601C343 601 300 601 257.2 601C214.3 601 171.7 601 128.8 601C86 601 43 601 21.5 601L0 601Z" fill="#cc57d2"></path><path d="M0 490L21.5 496.2C43 502.3 86 514.7 128.8 520.8C171.7 527 214.3 527 257.2 529C300 531 343 535 385.8 537.2C428.7 539.3 471.3 539.7 514.2 539.3C557 539 600 538 642.8 536.8C685.7 535.7 728.3 534.3 771.2 527.8C814 521.3 857 509.7 878.5 503.8L900 498L900 601L878.5 601C857 601 814 601 771.2 601C728.3 601 685.7 601 642.8 601C600 601 557 601 514.2 601C471.3 601 428.7 601 385.8 601C343 601 300 601 257.2 601C214.3 601 171.7 601 128.8 601C86 601 43 601 21.5 601L0 601Z" fill="#ac61e5"></path><path d="M0 560L21.5 561.7C43 563.3 86 566.7 128.8 566.8C171.7 567 214.3 564 257.2 561.2C300 558.3 343 555.7 385.8 549.8C428.7 544 471.3 535 514.2 535.3C557 535.7 600 545.3 642.8 546C685.7 546.7 728.3 538.3 771.2 537C814 535.7 857 541.3 878.5 544.2L900 547L900 601L878.5 601C857 601 814 601 771.2 601C728.3 601 685.7 601 642.8 601C600 601 557 601 514.2 601C471.3 601 428.7 601 385.8 601C343 601 300 601 257.2 601C214.3 601 171.7 601 128.8 601C86 601 43 601 21.5 601L0 601Z" fill="#7e6bf5"></path></svg>